<svg xmlns="http://www.w3.org/2000/svg" height="379" width="920"><g><g style="stroke-width: 1px; font-size: 10px; font-family: Arial, Helvetica; display: none;" transform="translate(0,359)" class="x axis"><g style="opacity: 1;" transform="translate(35.38461538461539,0)" class="tick"><line style="shape-rendering: crispEdges; fill: none; stroke: rgb(204, 204, 204);" x2="0" y2="-359"/><text style="text-anchor: middle;" x="0" y="3" dy=".71em">1,988</text></g><g style="opacity: 1;" transform="translate(106.15384615384616,0)" class="tick"><line style="shape-rendering: crispEdges; fill: none; stroke: rgb(204, 204, 204);" x2="0" y2="-359"/><text style="text-anchor: middle;" x="0" y="3" dy=".71em">1,990</text></g><g style="opacity: 1;" transform="translate(176.92307692307693,0)" class="tick"><line style="shape-rendering: crispEdges; fill: none; stroke: rgb(204, 204, 204);" x2="0" y2="-359"/><text style="text-anchor: middle;" x="0" y="3" dy=".71em">1,992</text></g><g style="opacity: 1;" transform="translate(247.69230769230768,0)" class="tick"><line style="shape-rendering: crispEdges; fill: none; stroke: rgb(204, 204, 204);" x2="0" y2="-359"/><text style="text-anchor: middle;" x="0" y="3" dy=".71em">1,994</text></g><g style="opacity: 1;" transform="translate(318.46153846153845,0)" class="tick"><line style="shape-rendering: crispEdges; fill: none; stroke: rgb(204, 204, 204);" x2="0" y2="-359"/><text style="text-anchor: middle;" x="0" y="3" dy=".71em">1,996</text></g><g style="opacity: 1;" transform="translate(389.2307692307692,0)" class="tick"><line style="shape-rendering: crispEdges; fill: none; stroke: rgb(204, 204, 204);" x2="0" y2="-359"/><text style="text-anchor: middle;" x="0" y="3" dy=".71em">1,998</text></g><g style="opacity: 1;" transform="translate(460,0)" class="tick"><line style="shape-rendering: crispEdges; fill: none; stroke: rgb(204, 204, 204);" x2="0" y2="-359"/><text style="text-anchor: middle;" x="0" y="3" dy=".71em">2,000</text></g><g style="opacity: 1;" transform="translate(530.7692307692307,0)" class="tick"><line style="shape-rendering: crispEdges; fill: none; stroke: rgb(204, 204, 204);" x2="0" y2="-359"/><text style="text-anchor: middle;" x="0" y="3" dy=".71em">2,002</text></g><g style="opacity: 1;" transform="translate(601.5384615384615,0)" class="tick"><line style="shape-rendering: crispEdges; fill: none; stroke: rgb(204, 204, 204);" x2="0" y2="-359"/><text style="text-anchor: middle;" x="0" y="3" dy=".71em">2,004</text></g><g style="opacity: 1;" transform="translate(672.3076923076923,0)" class="tick"><line style="shape-rendering: crispEdges; fill: none; stroke: rgb(204, 204, 204);" x2="0" y2="-359"/><text style="text-anchor: middle;" x="0" y="3" dy=".71em">2,006</text></g><g style="opacity: 1;" transform="translate(743.0769230769231,0)" class="tick"><line style="shape-rendering: crispEdges; fill: none; stroke: rgb(204, 204, 204);" x2="0" y2="-359"/><text style="text-anchor: middle;" x="0" y="3" dy=".71em">2,008</text></g><g style="opacity: 1;" transform="translate(813.8461538461538,0)" class="tick"><line style="shape-rendering: crispEdges; fill: none; stroke: rgb(204, 204, 204);" x2="0" y2="-359"/><text style="text-anchor: middle;" x="0" y="3" dy=".71em">2,010</text></g><g style="opacity: 1;" transform="translate(884.6153846153846,0)" class="tick"><line style="shape-rendering: crispEdges; fill: none; stroke: rgb(204, 204, 204);" x2="0" y2="-359"/><text style="text-anchor: middle;" x="0" y="3" dy=".71em">2,012</text></g><path style="shape-rendering: crispEdges; fill: none; stroke: rgb(204, 204, 204);" d="M0,-359V0H920V-359" class="domain"/></g><path style="fill-opacity: 0.9; fill: rgb(255, 98, 96);" title="Tomatoes, paste" d="M0,176.92115733573058C17.692307692307693,176.92115733573058 17.692307692307693,174.44391449832693 35.38461538461539,174.44391449832693C53.07692307692308,174.44391449832693 53.07692307692308,177.13332168006795 70.76923076923077,177.13332168006795C88.46153846153847,177.13332168006795 88.46153846153847,176.32351129534368 106.15384615384616,176.32351129534368C123.84615384615385,176.32351129534368 123.84615384615385,174.46782033994242 141.53846153846155,174.46782033994242C159.23076923076923,174.46782033994242 159.23076923076923,171.8381777622401 176.92307692307693,171.8381777622401C194.61538461538464,171.8381777622401 194.61538461538464,174.73974928831842 212.30769230769232,174.73974928831842C230,174.73974928831842 230,175.78861808919743 247.69230769230768,175.78861808919743C265.38461538461536,175.78861808919743 265.38461538461536,177.27675672976076 283.0769230769231,177.27675672976076C300.7692307692308,177.27675672976076 300.7692307692308,177.39628593783817 318.46153846153845,177.39628593783817C336.1538461538462,177.39628593783817 336.1538461538462,175.8752767650535 353.84615384615387,175.8752767650535C371.53846153846155,175.8752767650535 371.53846153846155,160.56657344054338 389.2307692307692,160.56657344054338C406.9230769230769,160.56657344054338 406.9230769230769,153.974537615076 424.61538461538464,153.974537615076C442.3076923076923,153.974537615076 442.3076923076923,139.1021159000483 460,139.1021159000483C477.6923076923077,139.1021159000483 477.6923076923077,119.29014966122293 495.38461538461536,119.29014966122293C513.0769230769231,119.29014966122293 513.0769230769231,107.10713512793619 530.7692307692307,107.10713512793619C548.4615384615385,107.10713512793619 548.4615384615385,31.58260500424511 566.1538461538462,31.58260500424511C583.8461538461538,31.58260500424511 583.8461538461538,13.12131881669414 601.5384615384615,13.12131881669414C619.2307692307693,13.12131881669414 619.2307692307693,125.27557475569762 636.9230769230769,125.27557475569762C654.6153846153845,125.27557475569762 654.6153846153845,52.380687209708825 672.3076923076923,52.380687209708825C690,52.380687209708825 690,73.39691021991375 707.6923076923077,73.39691021991375C725.3846153846155,73.39691021991375 725.3846153846155,62.552622817093685 743.0769230769231,62.552622817093685C760.7692307692307,62.552622817093685 760.7692307692307,0 778.4615384615385,0C796.1538461538462,0 796.1538461538462,87.72547403818943 813.8461538461538,87.72547403818943C831.5384615384615,87.72547403818943 831.5384615384615,65.6185470042784 849.2307692307693,65.6185470042784C866.9230769230769,65.6185470042784 866.9230769230769,75.49763605187367 884.6153846153846,75.49763605187367C902.3076923076924,75.49763605187367 902.3076923076924,72.08806539146649 920,72.08806539146649L920,286.9119346085335C902.3076923076924,286.9119346085335 902.3076923076924,283.50236394812634 884.6153846153846,283.50236394812634C866.9230769230769,283.50236394812634 866.9230769230769,293.3814529957216 849.2307692307693,293.3814529957216C831.5384615384615,293.3814529957216 831.5384615384615,271.2745259618106 813.8461538461538,271.2745259618106C796.1538461538462,271.2745259618106 796.1538461538462,359 778.4615384615385,359C760.7692307692307,359 760.7692307692307,296.44737718290634 743.0769230769231,296.44737718290634C725.3846153846155,296.44737718290634 725.3846153846155,285.60308978008624 707.6923076923077,285.60308978008624C690,285.60308978008624 690,306.6193127902912 672.3076923076923,306.6193127902912C654.6153846153845,306.6193127902912 654.6153846153845,233.72442524430238 636.9230769230769,233.72442524430238C619.2307692307693,233.72442524430238 619.2307692307693,345.87868118330584 601.5384615384615,345.87868118330584C583.8461538461538,345.87868118330584 583.8461538461538,327.4173949957549 566.1538461538462,327.4173949957549C548.4615384615385,327.4173949957549 548.4615384615385,251.89286487206377 530.7692307692307,251.89286487206377C513.0769230769231,251.89286487206377 513.0769230769231,239.70985033877707 495.38461538461536,239.70985033877707C477.6923076923077,239.70985033877707 477.6923076923077,219.8978840999517 460,219.8978840999517C442.3076923076923,219.8978840999517 442.3076923076923,205.025462384924 424.61538461538464,205.025462384924C406.9230769230769,205.025462384924 406.9230769230769,198.43342655945662 389.2307692307692,198.43342655945662C371.53846153846155,198.43342655945662 371.53846153846155,183.12472323494646 353.84615384615387,183.12472323494646C336.1538461538462,183.12472323494646 336.1538461538462,181.60371406216183 318.46153846153845,181.60371406216183C300.7692307692308,181.60371406216183 300.7692307692308,181.72324327023924 283.0769230769231,181.72324327023924C265.38461538461536,181.72324327023924 265.38461538461536,183.21138191080257 247.69230769230768,183.21138191080257C230,183.21138191080257 230,184.26025071168158 212.30769230769232,184.26025071168158C194.61538461538464,184.26025071168158 194.61538461538464,187.1618222377599 176.92307692307693,187.1618222377599C159.23076923076923,187.1618222377599 159.23076923076923,184.53217966005764 141.53846153846155,184.53217966005764C123.84615384615385,184.53217966005764 123.84615384615385,182.67648870465632 106.15384615384616,182.67648870465632C88.46153846153847,182.67648870465632 88.46153846153847,181.8666783199321 70.76923076923077,181.8666783199321C53.07692307692308,181.8666783199321 53.07692307692308,184.55608550167307 35.38461538461539,184.55608550167307C17.692307692307693,184.55608550167307 17.692307692307693,182.07884266426944 0,182.07884266426944Z" class="layer"/></g></svg>